#!OML:ASF F:\VICON\USERDATA\INSTALL\Justin_Nancy\Justin_Nancy.ASF
:FULLY-SPECIFIED
:DEGREES
48
root 9.83898 17.7364 -21.6818 -1.02085 -2.45751 -3.67029
lowerback 6.71758 0.246923 2.16368
upperback 1.46512 0.575878 3.80973
thorax -2.27336 0.280564 2.66834
lowerneck -15.2929 -3.75962 -9.85346
upperneck 22.691 -3.79988 4.37491
head 10.0365 -2.11014 2.68662
rclavicle -2.6339e-015 7.95139e-015
rhumerus -29.9364 -13.6089 -77.2955
rradius 28.948
rwrist 8.11749
rhand -13.7356 11.7187
rfingers 7.12502
rthumb 12.3841 -17.8945
lclavicle -2.6339e-015 7.95139e-015
lhumerus -28.9872 6.74955 86.5515
lradius 28.5775
lwrist -8.98974
lhand -20.7486 20.2761
lfingers 7.12502
lthumb 5.6171 50.1817
rfemur -1.02608 3.17398 31.1647
rtibia 13.3036
rfoot -7.05876 -0.558181
rtoes 10.2548
lfemur -26.1714 2.07465 -15.4857
ltibia 63.7996
lfoot -2.99625 -0.0790675
ltoes -3.50143
49
root 9.83517 17.7154 -21.5635 -0.885158 -2.37512 -3.4881
lowerback 6.63182 0.291495 2.04188
upperback 1.2176 0.631848 3.71688
thorax -2.48317 0.309195 2.63606
lowerneck -14.5216 -3.69895 -9.6871
upperneck 22.4676 -3.7934 4.20575
head 9.80311 -2.11728 2.60509
rclavicle 1.25731e-014 4.13472e-014
rhumerus -29.8643 -13.4458 -77.2909
rradius 28.9696
rwrist 7.57443
rhand -13.0058 12.6469
rfingers 7.12502
rthumb 13.0876 -16.9224
lclavicle 1.25731e-014 4.13472e-014
lhumerus -29.6945 6.72613 86.4196
lradius 28.6888
lwrist -8.91926
lhand -21.1922 18.3902
lfingers 7.12502
lthumb 5.18875 48.3067
rfemur -1.10035 3.02647 30.994
rtibia 14.1147
rfoot -7.86863 -0.748211
rtoes 8.85463
lfemur -26.9153 1.71776 -15.7707
ltibia 62.6142
lfoot -3.90582 0.783892
ltoes -3.39061
50
root 9.83184 17.6903 -21.4433 -0.78366 -2.61118 -3.42164
lowerback 6.84545 0.422305 2.01211
upperback 0.762515 0.831895 3.65353
thorax -3.07897 0.408564 2.56905
lowerneck -13.6147 -3.65886 -9.64879
upperneck 22.5822 -3.8333 4.15388
head 9.67375 -2.15083 2.5858
rclavicle -5.61567e-015 2.78299e-014
rhumerus -30.3903 -13.1921 -77.1592
rradius 28.8961
rwrist 8.08526
rhand -13.4461 15.0814
rfingers 7.12502
rthumb 12.6632 -14.5147
lclavicle -5.61567e-015 2.78299e-014
lhumerus -30.7137 6.65213 86.2452
lradius 28.663
lwrist -9.00082
lhand -20.9328 18.8669
lfingers 7.12502
lthumb 5.43924 48.7771
rfemur -0.980171 3.14014 30.9558
rtibia 14.7158
rfoot -8.54265 -0.871881
rtoes 7.76361
lfemur -27.5155 1.69981 -15.8963
ltibia 61.345
lfoot -5.09056 1.57455
ltoes -4.16618
51
root 9.82635 17.6574 -21.3371 -0.736459 -2.9872 -3.73461
lowerback 7.0918 0.531685 2.36588
upperback 0.593774 1.0249 3.68896
thorax -3.39231 0.499104 2.38728
lowerneck -13.3457 -3.59974 -9.6713
upperneck 22.6432 -3.79461 4.23383
head 9.64304 -2.13028 2.62619
rclavicle 6.85807e-015 -2.38542e-014
rhumerus -30.2252 -12.6766 -77.4783
rradius 28.9414
rwrist 8.76928
rhand -14.6882 15.1806
rfingers 7.12502
rthumb 11.4654 -14.4859
lclavicle 6.85807e-015 -2.38542e-014
lhumerus -31.0624 6.79507 86.016
lradius 28.3015
lwrist -9.21116
lhand -20.9233 19.2471
lfingers 7.12502
lthumb 5.44836 49.1571
rfemur -0.774685 3.62315 31.4184
rtibia 15.1092
rfoot -8.91313 -1.16068
rtoes 6.62674
lfemur -28.098 1.797 -15.5381
ltibia 60.0344
lfoot -5.8959 2.41114
ltoes -4.85993
52
root 9.82723 17.64 -21.2042 -0.711487 -3.37834 -3.84814
lowerback 6.82706 0.649954 2.62228
upperback 0.741701 1.18154 3.69056
thorax -3.0895 0.574779 2.2316
lowerneck -13.4922 -3.61638 -9.82208
upperneck 22.6246 -3.77693 4.28079
head 9.66763 -2.12767 2.66837
rclavicle -7.7526e-015 -3.26007e-014
rhumerus -29.487 -11.9975 -77.9281
rradius 29.3228
rwrist 8.00153
rhand -14.278 13.2753
rfingers 7.12502
rthumb 11.8611 -16.3688
lclavicle -7.7526e-015 -3.26007e-014
lhumerus -31.1193 6.87575 85.9988
lradius 28.035
lwrist -8.68203
lhand -19.6494 21.7936
lfingers 7.12502
lthumb 6.67823 51.6683
rfemur -0.426102 3.73381 31.5594
rtibia 15.4092
rfoot -9.4645 -1.01771
rtoes 6.31419
lfemur -28.428 1.88795 -15.4646
ltibia 58.5015
lfoot -6.53188 3.46923
ltoes -7.06261
53
root 9.82575 17.6304 -21.075 -0.798246 -3.663 -3.85308
lowerback 6.7693 0.785791 2.83341
upperback 1.13689 1.35234 3.59849
thorax -2.64445 0.659949 2.00362
lowerneck -14.6442 -3.71569 -9.80064
upperneck 22.8349 -3.79912 4.27564
head 9.962 -2.12624 2.65063
rclavicle 9.93923e-017 7.95139e-016
rhumerus -28.2599 -11.8586 -78.3344
rradius 29.5825
rwrist 7.26069
rhand -13.3026 11.4873
rfingers 7.12502
rthumb 12.8015 -18.1002
lclavicle 9.93923e-017 7.95139e-016
lhumerus -30.6869 6.76303 86.0744
lradius 27.9459
lwrist -7.91823
lhand -16.3273 26.4071
lfingers 7.12502
lthumb 9.88441 56.1551
rfemur 0.0686126 3.72453 31.569
rtibia 15.6462
rfoot -10.101 -0.915531
rtoes 6.82677
lfemur -28.5874 1.87975 -15.4562
ltibia 56.7595
lfoot -5.65767 5.11161
ltoes -3.3326
54
root 9.82157 17.6152 -20.9588 -0.7293 -3.56731 -3.80798
lowerback 6.74137 0.730301 2.91024
upperback 1.64362 1.25733 3.60373
thorax -2.10217 0.6165 1.97714
lowerneck -16.8561 -3.95724 -9.89608
upperneck 23.2466 -3.85196 4.17336
head 10.5388 -2.15176 2.60451
rclavicle -5.46658e-015 -7.15625e-015
rhumerus -26.5861 -11.2708 -78.8173
rradius 29.6809
rwrist 6.98445
rhand -13.3477 10.872
rfingers 7.12502
rthumb 12.758 -18.7182
lclavicle -5.46658e-015 -7.15625e-015
lhumerus -29.6622 7.22541 86.1967
lradius 27.8266
lwrist -8.25088
lhand -13.6514 30.9134
lfingers 7.12502
lthumb 12.4652 60.5216
rfemur 0.400655 3.53755 31.5389
rtibia 15.7046
rfoot -10.5817 -0.987994
rtoes 6.46125
lfemur -28.9656 1.55996 -15.4838
ltibia 54.7995
lfoot -6.84879 5.55096
ltoes -5.7065
55
root 9.82111 17.5985 -20.8362 -0.574025 -3.46581 -3.80162
lowerback 6.51196 0.695357 2.91383
upperback 1.21734 1.21982 3.59741
thorax -2.4138 0.595029 1.97226
lowerneck -15.0924 -3.85766 -9.71367
upperneck 22.6505 -3.88936 3.96077
head 9.98159 -2.18772 2.50515
rclavicle 6.26172e-015 3.97569e-014
rhumerus -27.1477 -10.6578 -78.8753
rradius 30.052
rwrist 6.91866
rhand -13.5678 11.4824
rfingers 7.12502
rthumb 12.5458 -18.1209
lclavicle 6.26172e-015 3.97569e-014
lhumerus -30.6993 7.72336 85.874
lradius 27.3036
lwrist -8.30626
lhand -14.3504 28.775
lfingers 7.12502
lthumb 11.7912 58.4231
rfemur 0.763569 3.39958 31.5439
rtibia 15.4863
rfoot -10.8584 -1.10614
rtoes 5.4574
lfemur -29.3587 1.13134 -15.456
ltibia 52.6758
lfoot -7.39876 6.47128
ltoes -6.14138
56
root 9.82424 17.5913 -20.707 -0.51487 -3.78383 -3.8519
lowerback 6.40435 0.868617 3.18753
upperback 1.14461 1.46272 3.45763
thorax -2.42149 0.713165 1.65469
lowerneck -14.6793 -3.88319 -9.47654
upperneck 22.5408 -4.02377 3.94325
head 9.86736 -2.23427 2.44528
rclavicle -7.70291e-015 -1.59028e-014
rhumerus -27.0814 -10.4404 -79.1504
rradius 30.3783
rwrist 6.36343
rhand -13.6375 11.2132
rfingers 7.12502
rthumb 12.4786 -18.3943
lclavicle -7.70291e-015 -1.59028e-014
lhumerus -31.0963 7.31212 85.8322
lradius 27.1102
lwrist -7.49658
lhand -15.5918 27.4044
lfingers 7.12502
lthumb 10.5939 57.1174
rfemur 1.45422 3.35157 31.5714
rtibia 14.9973
rfoot -10.9523 -0.917783
rtoes 4.78633
lfemur -29.4492 0.95738 -15.3687
ltibia 50.4712
lfoot -7.48662 7.51057
ltoes -6.4151
57
root 9.82055 17.6037 -20.5794 -0.387732 -4.14511 -3.86094
lowerback 6.37597 1.04591 3.30673
upperback 1.0184 1.70857 3.35914
thorax -2.531 0.832709 1.46506
lowerneck -14.4625 -3.87788 -9.39996
upperneck 22.5839 -4.08569 4.04913
head 9.84572 -2.24766 2.46479
rclavicle 9.83984e-015 2.94201e-014
rhumerus -27.0057 -10.0664 -79.3901
rradius 30.569
rwrist 5.4953
rhand -13.5023 10.2363
rfingers 7.12502
rthumb 12.6089 -19.3631
lclavicle 9.83984e-015 2.94201e-014
lhumerus -31.4411 7.15023 85.7739
lradius 26.8592
lwrist -7.13644
lhand -16.4024 27.2888
lfingers 7.12502
lthumb 9.81198 57.0402
rfemur 2.02202 3.50703 31.5711
rtibia 14.6528
rfoot -11.194 -0.794971
rtoes 4.44874
lfemur -29.6034 0.812767 -15.2514
ltibia 48.2133
lfoot -7.81697 8.18881
ltoes -4.73531
58
root 9.80971 17.6021 -20.4651 -0.210484 -4.30659 -4.17197
lowerback 6.51564 1.10944 3.53728
upperback 0.861095 1.82844 3.47279
thorax -2.76874 0.88729 1.43951
lowerneck -14.4481 -3.70124 -9.6157
upperneck 22.7497 -3.87471 4.39624
head 9.89668 -2.13241 2.65384
rclavicle -1.4064e-014 -1.59028e-014
rhumerus -26.8634 -9.53327 -79.5418
rradius 30.8996
rwrist 4.83915
rhand -13.2649 9.27185
rfingers 7.12502
rthumb 12.8378 -20.3134
lclavicle -1.4064e-014 -1.59028e-014
lhumerus -31.7595 7.89274 85.3687
lradius 26.9573
lwrist -9.65895
lhand -13.203 30.8621
lfingers 7.12502
lthumb 12.8976 60.4435
rfemur 2.45801 3.97707 32.0168
rtibia 14.3612
rfoot -11.3443 -1.26551
rtoes 3.91836
lfemur -29.922 0.582176 -14.7645
ltibia 45.9971
lfoot -7.56847 8.97434
ltoes -1.89096
